<?xml version="1.0" ?>
<!DOCTYPE svg  PUBLIC '-//W3C//DTD SVG 1.1//EN'  'http://www.w3.org/Graphics/SVG/1.1/DTD/svg11.dtd'>
<!-- Uploaded to: SVG Repo, www.svgrepo.com, Generator: SVG Repo Mixer Tools -->
<svg fill="#000000" width="800px" height="800px" viewBox="0 0 100 100" version="1.1" xml:space="preserve" xmlns="http://www.w3.org/2000/svg" xmlns:xlink="http://www.w3.org/1999/xlink">
<g id="_x31_"/>
<g id="_x32_"/>
<g id="_x33_"/>
<g id="_x34_"/>
<g id="_x35_"/>
<g id="_x36_"/>
<g id="_x37_"/>
<g id="_x38_"/>
<g id="_x39_"/>
<g id="_x31_0"/>
<g id="_x31_1"/>
<g id="_x31_2"/>
<g id="_x31_3"/>
<g id="_x31_4"/>
<g id="_x31_5"/>
<g id="_x31_6"/>
<g id="_x31_7"/>
<g id="_x31_8"/>
<g id="_x31_9"/>
<g id="_x32_0"/>
<g id="_x32_1"/>
<g id="_x32_2"/>
<g id="_x32_3">
<path d="M72.4,13.7c-3.8,0-7,3.1-7,7v2.5c-1.1-0.8-2.5-1.3-4-1.3s-2.9,0.5-4,1.3v-2.5c0-3.8-3.1-7-7-7c-3.8,0-7,3.1-7,7v2.5   c-1.1-0.8-2.5-1.3-4-1.3s-2.9,0.5-4,1.3v-2.5c0-3.8-3.1-7-7-7s-7,3.1-7,7v37.2c0,0.8,0.7,1.5,1.5,1.5h10.9c0.1,0,0.2,0,0.3,0   c0.1,0,0.2,0,0.3,0h9.8c0.1,0,0.2,0,0.3,0c0.1,0,0.2,0,0.3,0h10.9c0.1,0,0.2,0,0.3,0c0.1,0,0.2,0,0.3,0h9.8c0.1,0,0.2,0,0.3,0   c0.1,0,0.2,0,0.3,0h10.9c0.8,0,1.5-0.7,1.5-1.5V20.6C79.3,16.8,76.2,13.7,72.4,13.7z M24.4,20.6c0-1.7,1-3.1,2.5-3.7v39.4h-2.5   V20.6z M32.3,56.3h-2.5V17c1.4,0.6,2.5,2,2.5,3.7V56.3z M43.3,56.3h-7.9V28.8c0-2.2,1.8-4,4-4s4,1.8,4,4V56.3z M46.4,20.6   c0-1.7,1-3.1,2.5-3.7v39.4h-2.5V20.6z M54.3,56.3h-2.5V17c1.4,0.6,2.5,2,2.5,3.7V56.3z M65.3,56.3h-7.9V28.8c0-2.2,1.8-4,4-4   s4,1.8,4,4V56.3z M68.4,20.6c0-1.7,1-3.1,2.5-3.7v39.4h-2.5V20.6z M76.3,56.3h-2.5V17c1.4,0.6,2.5,2,2.5,3.7V56.3z M84.5,56.3H80   H20.8h-5.3c-0.8,0-1.5,0.7-1.5,1.5s0.7,1.5,1.5,1.5h4l3.8,28.2c0.1,0.7,0.7,1.3,1.5,1.3H76c0.8,0,1.4-0.6,1.5-1.3l3.8-28.2h3.2   c0.8,0,1.5-0.7,1.5-1.5S85.3,56.3,84.5,56.3z M74.7,85.8H26.1l-3.6-26.5h55.8L74.7,85.8z M50.4,82.1c-4.6,0-8.4-3.8-8.4-8.4   s3.8-8.4,8.4-8.4s8.4,3.8,8.4,8.4S55,82.1,50.4,82.1z M50.4,68.3c-3,0-5.4,2.4-5.4,5.4s2.4,5.4,5.4,5.4s5.4-2.4,5.4-5.4   S53.3,68.3,50.4,68.3z"/>
</g>
<g id="_x32_4"/>
</svg>