<?xml version="1.0" encoding="iso-8859-1"?>
<!-- Uploaded to: SVG Repo, www.svgrepo.com, Generator: SVG Repo Mixer Tools -->
<svg fill="#000000" height="800px" width="800px" version="1.1" id="Layer_1" xmlns="http://www.w3.org/2000/svg" xmlns:xlink="http://www.w3.org/1999/xlink" 
	 viewBox="0 0 512 512" xml:space="preserve">
<g>
	<g>
		<path d="M351.623,141.626c-3.814-5.965-7.521-11.322-11.238-15.94c1.608-4.209,2.498-8.771,2.498-13.538V93.559
			c0-20.984-17.071-38.056-38.056-38.056h-25.586V21.142C279.241,9.466,269.775,0,258.099,0c-11.676,0-21.142,9.466-21.142,21.142
			v34.361h-25.586c-20.984,0-38.056,17.071-38.056,38.056v18.589c0,3.859,0.582,7.584,1.655,11.097
			c-4.455,5.032-8.908,11.1-13.532,17.986c-12.798,19.063-19.289,33.435-19.289,42.715v289.998
			c0,20.984,17.071,38.056,38.056,38.056h151.59c20.984,0,38.056-17.071,38.056-38.056V183.947
			C369.849,174.781,363.718,160.541,351.623,141.626z M215.598,97.787h85.001v10.133h-85.001V97.787z M327.566,469.716h-0.001
			H184.434V186.065c2.882-7.707,15.888-28.108,23.18-35.86h3.756h93.458h0.933c7.067,7.899,19.174,27.927,21.806,35.652V469.716z"/>
	</g>
</g>
<g>
	<g>
		<path d="M257.896,254.898c-33.497,0-60.748,27.251-60.748,60.747c0,33.497,27.251,60.748,60.748,60.748
			s60.748-27.251,60.748-60.748C318.643,282.148,291.392,254.898,257.896,254.898z M257.896,334.107
			c-10.181,0-18.464-8.283-18.464-18.464s8.283-18.463,18.464-18.463s18.464,8.282,18.464,18.463
			C276.36,325.824,268.076,334.107,257.896,334.107z"/>
	</g>
</g>
</svg>