<?xml version="1.0" encoding="iso-8859-1"?>
<!-- Uploaded to: SVG Repo, www.svgrepo.com, Generator: SVG Repo Mixer Tools -->
<svg fill="#000000" height="800px" width="800px" version="1.1" id="Layer_1" xmlns="http://www.w3.org/2000/svg" xmlns:xlink="http://www.w3.org/1999/xlink" 
	 viewBox="0 0 512 512" xml:space="preserve">
<g>
	<g>
		<path d="M413.538,13.128c-47.549,0-87.331,33.881-96.48,78.769H0v85.333c0,32.575,26.502,59.077,59.077,59.077h45.949v32.821
			c0,54.809,39.731,100.482,91.897,109.813v80.545H111.59v39.385h210.051v-39.385h-85.333v-80.545
			c52.166-9.332,91.897-55.005,91.897-109.813v-32.821h45.949c20.655,0,38.856-10.663,49.42-26.764
			C473.169,204.501,512,162.494,512,111.59C512,57.298,467.83,13.128,413.538,13.128z M288.82,269.128
			c0,39.814-32.391,72.205-72.205,72.205s-72.205-32.391-72.205-72.205v-32.821h144.41V269.128z M393.846,177.231
			c0,10.858-8.834,19.692-19.692,19.692H59.077c-10.858,0-19.692-8.834-19.692-19.692v-45.949h354.462V177.231z M433.231,167.293
			V91.897h-75.395c8.128-22.923,30.029-39.385,55.703-39.385c32.575,0,59.077,26.502,59.077,59.077
			C472.615,137.265,456.154,159.165,433.231,167.293z"/>
	</g>
</g>
</svg>