<?xml version="1.0" encoding="iso-8859-1"?>
<!-- Uploaded to: SVG Repo, www.svgrepo.com, Generator: SVG Repo Mixer Tools -->
<svg fill="#000000" height="800px" width="800px" version="1.1" id="Layer_1" xmlns="http://www.w3.org/2000/svg" xmlns:xlink="http://www.w3.org/1999/xlink" 
	 viewBox="0 0 512 512" xml:space="preserve">
<g>
	<g>
		<path d="M511.96,168.263c-0.732-41.945-19.259-83.167-52.164-116.073C426.889,19.285,385.668,0.758,343.725,0.023
			c-44.964-0.785-88.229,18.288-125.108,55.165c-33.935,33.938-65.095,85.081-83.355,136.804
			c-19.33,54.757-21.144,101.696-5.4,133.525l-52.889,52.889c-8-5.2-17.339-7.989-27.105-7.989
			c-13.321,0-25.845,5.187-35.265,14.607c-19.448,19.448-19.448,51.092,0,70.539c7.558,7.558,17.366,12.385,27.905,13.917
			c1.532,10.538,6.359,20.347,13.916,27.906C65.848,506.81,78.374,512,91.694,512s25.846-5.19,35.27-14.614
			c16.913-16.913,19.115-43.047,6.609-62.363l52.887-52.895c14.273,7.059,31.571,10.599,51.269,10.599
			c24.226,0,52.062-5.338,82.263-16c51.725-18.26,102.867-49.421,136.807-83.356C493.673,256.493,512.747,213.232,511.96,168.263z
			 M112.187,426.856c-4.08,4.08-4.08,10.697,0,14.777c11.297,11.297,11.297,29.679,0,40.976c-5.476,5.476-12.754,8.493-20.492,8.493
			s-15.017-3.017-20.493-8.493c-4.153-4.152-6.827-9.337-7.851-15.034c7.609-2.731,16.255-8.09,21.153-17.56
			c2.651-5.126,0.644-11.43-4.483-14.081s-11.429-0.645-14.081,4.483c-3.593,6.95-13.01,8.459-14.291,8.635
			c-8.509,0.527-16.413-2.407-22.27-8.263c-11.299-11.299-11.299-29.685,0-40.986c5.472-5.472,12.748-8.486,20.487-8.486
			s15.016,3.013,20.487,8.486c1.959,1.959,4.617,3.06,7.388,3.06c2.771,0,5.428-1.101,7.388-3.06l57.696-57.696l27.047,27.053
			L112.187,426.856z M442.024,278.593c-31.367,31.361-80.791,61.412-128.987,78.427c-51.578,18.209-95.874,19.616-121.825,3.924
			l-40.167-40.177c-15.693-25.948-14.286-70.242,3.922-121.816c17.015-48.195,47.066-97.621,78.427-128.985
			C297.58,5.779,382.626,4.575,445.02,66.968C507.41,129.358,506.205,214.404,442.024,278.593z"/>
	</g>
</g>
<g>
	<g>
		<path d="M261.524,98.533c-4.081-4.081-10.695-4.081-14.777,0l-0.086,0.086c-4.08,4.08-4.08,10.697,0,14.778
			c2.041,2.041,4.715,3.06,7.388,3.06c2.674,0,5.348-1.02,7.388-3.06l0.086-0.086C265.605,109.231,265.605,102.615,261.524,98.533z"
			/>
	</g>
</g>
<g>
	<g>
		<path d="M422.332,89.656c-19.259-19.258-42.821-30.999-68.137-33.953c-26.231-3.058-53.208,3.557-78.011,19.136
			c-4.887,3.07-6.359,9.519-3.289,14.406c3.07,4.887,9.517,6.359,14.406,3.29c41.051-25.786,87.131-21.226,120.255,11.897
			c2.041,2.041,4.715,3.06,7.388,3.06s5.348-1.021,7.388-3.06C426.412,100.353,426.412,93.736,422.332,89.656z"/>
	</g>
</g>
<g>
	<g>
		<path d="M236.884,125.242c-4.66-3.404-11.197-2.39-14.602,2.269c-10.139,13.871-19.705,29.552-27.664,45.346
			c-2.597,5.153-0.523,11.436,4.63,14.033c1.508,0.761,3.113,1.12,4.694,1.12c3.821,0,7.503-2.104,9.339-5.749
			c7.452-14.789,16.397-29.458,25.872-42.418C242.557,135.184,241.542,128.647,236.884,125.242z"/>
	</g>
</g>
</svg>