<?xml version="1.0" encoding="iso-8859-1"?>
<!-- Uploaded to: SVG Repo, www.svgrepo.com, Generator: SVG Repo Mixer Tools -->
<svg height="800px" width="800px" version="1.1" id="Layer_1" xmlns="http://www.w3.org/2000/svg" xmlns:xlink="http://www.w3.org/1999/xlink" 
	 viewBox="0 0 512.002 512.002" xml:space="preserve">
<path style="fill:#E49429;" d="M449.951,149.417c-9.121-3.375-19.376-0.713-25.703,6.672l-75.301,87.851l-75.301-87.851
	c-4.415-5.151-10.859-8.114-17.642-8.114c-6.783,0-13.227,2.963-17.642,8.114l-75.301,87.851L87.76,156.089
	c-6.328-7.384-16.584-10.044-25.703-6.672c-9.119,3.374-15.174,12.069-15.174,21.792v263.339c0,12.832,10.403,23.236,23.236,23.236
	h185.881c0.002,0,0.003,0,0.003,0H441.89c12.832,0,23.236-10.403,23.236-23.236V171.209
	C465.126,161.485,459.07,152.791,449.951,149.417z"/>
<path style="fill:#B77220;" d="M449.951,149.417c-9.121-3.375-19.376-0.713-25.703,6.672l-75.301,87.851l-75.301-87.851
	c-4.415-5.151-10.859-8.114-17.642-8.114v309.81H441.89c12.832,0,23.236-10.403,23.236-23.236V171.21
	C465.126,161.485,459.07,152.791,449.951,149.417z"/>
<g>
	<path style="fill:#E49429;" d="M472.871,457.783H39.137c-12.832,0-23.236-10.403-23.236-23.236
		c0-12.832,10.403-23.236,23.236-23.236h433.734c12.832,0,23.236,10.403,23.236,23.236
		C496.107,447.38,485.703,457.783,472.871,457.783z"/>
	<path style="fill:#E49429;" d="M256.004,54.217c-38.663,0-70.118,31.453-70.118,70.115s31.455,70.115,70.118,70.115
		c38.66,0,70.112-31.453,70.112-70.115S294.664,54.217,256.004,54.217z"/>
</g>
<g>
	<path style="fill:#B77220;" d="M256.004,194.852c38.66,0,70.112-31.453,70.112-70.115s-31.452-70.115-70.112-70.115V194.852z"/>
	<path style="fill:#B77220;" d="M472.871,411.312h-216.87v46.472h216.87c12.832,0,23.236-10.403,23.236-23.236
		C496.107,421.715,485.703,411.312,472.871,411.312z"/>
</g>
<path style="fill:#E49429;" d="M70.118,54.217C31.455,54.217,0,85.67,0,124.331s31.455,70.115,70.118,70.115
	c38.66,0,70.112-31.453,70.112-70.115S108.777,54.217,70.118,54.217z"/>
<path style="fill:#B77220;" d="M441.89,54.217c-38.663,0-70.118,31.453-70.118,70.115s31.455,70.115,70.118,70.115
	c38.66,0,70.112-31.453,70.112-70.115S480.55,54.217,441.89,54.217z"/>
</svg>